<svg width="404" height="170" viewBox="0 0 404 170" fill="none" xmlns="http://www.w3.org/2000/svg">
<g clip-path="url(#clip0_149_660)">
<path d="M65.9002 140.022C67.0855 139.381 68.9153 140.261 69.9923 142.009C71.0654 143.746 70.993 145.676 69.8116 146.328C68.6408 146.975 66.8004 146.099 65.7128 144.355C64.6291 142.622 64.7227 140.685 65.9002 140.022ZM73.4847 137.23C74.8212 136.967 76.1384 138.385 76.4583 140.399C76.7504 142.436 75.9282 144.292 74.6062 144.562C73.2736 144.836 71.9671 143.414 71.6683 141.392C71.355 139.363 72.1772 137.507 73.4847 137.23ZM62.0216 146.991C63.0395 146.026 65.0313 146.365 66.4958 147.693C67.919 149.072 68.2915 150.934 67.2842 151.895C66.2769 152.857 64.2997 152.524 62.8485 151.168C61.3974 149.811 61.0422 147.93 62.0216 146.991ZM81.1154 139.962C82.4696 140.041 83.4189 141.703 83.194 143.677C82.9691 145.651 81.6792 147.186 80.2892 147.108C78.8992 147.029 77.9751 145.37 78.1642 143.397C78.4181 141.436 79.7147 139.887 81.1154 139.962ZM83.5538 152.049C83.9633 153.03 83.6057 154.415 82.8458 155.164C81.2673 156.733 78.3545 155.758 76.2436 156.535C74.1327 157.312 72.5539 160.025 70.3394 159.769C69.0872 159.639 67.8476 158.53 67.5638 157.333C67.1728 155.683 68.7591 154.135 69.4579 152.565C70.4029 150.518 70.4288 147.317 72.5609 146.532C74.6824 145.751 76.8261 148.105 78.8244 149.116C80.4783 149.977 82.843 150.347 83.5538 152.049Z" fill="white"/>
<mask id="mask0_149_660" style="mask-type:luminance" maskUnits="userSpaceOnUse" x="101" y="-61" width="303" height="202">
<path d="M403.702 -40.9825L113.569 -60.124L101.606 121.21L391.739 140.351L403.702 -40.9825Z" fill="white"/>
</mask>
<g mask="url(#mask0_149_660)">
<path d="M324.748 166.941C325.306 158.479 330.536 152.644 340.098 153.274C349.66 153.905 353.397 161.121 352.896 168.725L352.844 169.511C352.789 170.333 352.299 170.774 351.465 170.719L333.247 169.517C333.022 172.926 335.536 176.589 341.496 176.982C343.962 177.145 345.841 176.637 348.253 175.971C349.614 175.587 350.659 175.935 350.564 177.386C350.38 180.166 346.015 183.581 338.918 183.113C329.284 182.478 324.14 176.153 324.748 166.941ZM194.782 140.3L194.526 144.18L199.156 144.486C199.978 144.54 200.419 145.043 200.364 145.865L200.096 149.939C200.041 150.761 199.539 151.201 198.717 151.147L194.087 150.841L193.269 163.232C193.071 166.242 194.118 167.659 195.847 167.773C196.581 167.781 197.31 167.652 197.997 167.393C199.251 166.966 199.911 167.641 199.836 168.777C199.647 171.642 196.245 173.7 192.28 173.439C186.175 173.036 184.229 169.047 184.578 163.752L185.994 142.282C186.028 141.774 186.33 141.43 186.817 141.231L193.053 139.081C194.148 138.68 194.857 139.163 194.782 140.3ZM247.131 162.099C247.734 152.96 253.674 147.573 262.487 148.154C271.312 148.736 276.493 154.857 275.89 163.997C275.288 173.124 269.347 178.523 260.522 177.941C251.709 177.36 246.529 171.226 247.131 162.099ZM151.326 155.779C151.929 146.639 157.253 141.211 164.773 141.707C166.338 141.768 167.85 142.295 169.115 143.219C170.38 144.144 171.34 145.425 171.873 146.899L172.064 143.997C172.118 143.175 172.621 142.735 173.443 142.789L179.475 143.187C180.297 143.242 180.738 143.744 180.684 144.566L178.958 170.714C178.904 171.536 178.402 171.977 177.58 171.923L171.547 171.525C170.725 171.47 170.285 170.968 170.339 170.146L170.528 167.281C169.808 168.673 168.688 169.817 167.312 170.568C165.936 171.319 164.368 171.641 162.807 171.494C155.288 170.998 150.724 164.906 151.326 155.779ZM302.383 180.193L296.351 179.795C295.529 179.741 295.088 179.238 295.142 178.416L296.301 160.851C296.495 157.913 295.661 157.312 294.101 157.209C293.227 157.153 292.35 157.282 291.529 157.588C290.707 157.894 289.959 158.369 289.334 158.983L288.085 177.914C288.031 178.736 287.528 179.176 286.706 179.122L280.674 178.724C279.852 178.67 279.411 178.167 279.466 177.345L281.059 153.192C281.093 152.684 281.382 152.351 281.869 152.14L288.117 150.003C289.248 149.604 289.922 150.073 289.846 151.222L289.572 155.368C291.398 151.628 294.283 150.215 298.128 150.469C301.537 150.694 303.934 152.455 304.882 156.111C305.547 154.573 306.689 153.289 308.139 152.449C309.589 151.609 311.271 151.257 312.936 151.446C317.53 151.749 321.089 154.497 320.67 160.844L319.41 179.932C319.356 180.754 318.854 181.195 318.032 181.14L311.987 180.742C311.165 180.687 310.725 180.185 310.779 179.363L311.937 161.81C312.131 158.872 311.309 158.259 309.738 158.156C308.865 158.104 307.992 158.235 307.173 158.541C306.354 158.846 305.608 159.32 304.983 159.93L303.734 178.861C303.708 179.807 303.205 180.247 302.383 180.193ZM218.704 174.672L212.272 174.248C211.45 174.194 211.01 173.691 211.064 172.869L213.291 139.117C213.345 138.295 213.848 137.854 214.67 137.909L221.101 138.333C221.923 138.387 222.364 138.89 222.309 139.712L221.481 152.26L234.138 153.095L234.966 140.547C235.021 139.725 235.523 139.284 236.345 139.339L242.777 139.763C243.599 139.817 244.039 140.32 243.985 141.142L241.758 174.894C241.704 175.716 241.201 176.156 240.379 176.102L233.948 175.678C233.126 175.624 232.685 175.121 232.74 174.299L233.684 159.986L221.027 159.151L220.082 173.464C220.028 174.286 219.526 174.726 218.704 174.672ZM260.91 171.507C264.561 171.748 266.671 169.022 267.041 163.413C267.411 157.804 265.677 154.824 262.027 154.583C258.388 154.343 256.277 157.069 255.907 162.678C255.537 168.288 257.307 171.27 260.91 171.507ZM165.154 165.19C168.805 165.431 170.915 162.705 171.285 157.095C171.655 151.486 169.921 148.506 166.27 148.265C162.632 148.025 160.521 150.752 160.151 156.361C159.781 161.97 161.515 164.95 165.154 165.19ZM344.924 164.969C344.803 161.453 342.923 159.398 339.708 159.186C336.492 158.974 334.407 160.767 333.79 164.235L344.924 164.969ZM371.148 86.5901L363.284 84.1401C354.645 81.4821 351.581 78.9611 351.861 74.7181C352.143 70.4501 356.596 67.9151 363.148 68.3481C370.631 68.8411 375.985 71.7931 384.752 78.5881C385.726 79.2831 386.597 79.8871 387.262 79.9311C388.556 80.0161 389.484 79.5681 389.852 77.6611C390.279 75.4961 390.554 73.3031 390.674 71.0981C390.93 67.2181 390.992 64.6241 390.806 63.2031C390.552 60.9771 389.854 59.7891 388.501 58.7531C381.213 53.4761 372.837 50.8721 363.432 50.2511C342.264 48.8551 327.79 58.2561 326.743 74.1291C325.96 86.0001 333.992 95.4661 348.725 100.178L356.977 102.811C367.505 106.104 368.638 108.619 368.389 112.391C368.1 116.779 364.18 119.507 357.991 119.099C348.187 118.452 341.207 114.373 333.745 105.843C332.649 104.593 331.948 103.806 330.534 103.713C329.902 103.649 329.265 103.765 328.697 104.048C328.128 104.331 327.651 104.768 327.32 105.31C321.889 113.099 317.97 115.827 312.796 115.486C307.271 115.121 303.647 110.985 304.115 103.888L306.574 66.6181L318.723 67.4201C320.331 67.5261 321.748 66.2841 321.854 64.6761L322.705 51.7771C322.75 51.0001 322.488 50.2361 321.975 49.6501C321.461 49.0641 320.738 48.7031 319.962 48.6461L307.812 47.8441L308.816 32.6366C309.036 29.3001 306.921 27.8614 303.503 29.0565L284.41 35.5917C283.73 35.8101 283.133 36.2322 282.701 36.8008C282.268 37.3693 282.02 38.0571 281.991 38.771L279.612 74.8321C278.122 97.4141 262.024 111.747 242.814 110.48C232.744 109.816 223.861 105.332 221.135 95.3061C223.396 96.3651 227.251 97.0081 232.776 97.3731C254.959 98.8361 271.208 87.7431 272.366 70.1891C273.396 54.5831 261.176 43.4321 241.967 42.1651C234.835 41.6941 227.89 42.6081 221.801 44.7321C218.438 23.5657 199.067 8.5436 171.082 6.6972C158.304 5.8542 146.595 6.6601 135.684 9.1699C132.651 9.8682 130.723 11.6715 130.527 14.6454L127.167 65.5641C121.182 62.7571 116.09 58.3491 112.454 52.8281C111.625 51.5951 111.009 50.8021 109.607 50.7101C107.528 50.5721 106.167 52.0611 106.033 54.0921C105.453 62.8811 115 75.1541 126.11 81.5941L123.795 116.676C123.689 118.283 124.93 119.713 126.538 119.819L149.543 121.337C150.323 121.382 151.089 121.118 151.675 120.602C152.262 120.086 152.621 119.36 152.676 118.581L154.429 92.0101C156.113 92.2421 157.747 92.5081 159.584 92.6291C174.792 93.6321 186.398 91.9941 195.109 87.1291C195.271 110.257 211.425 127.459 237.682 129.192C251.21 130.084 267.519 126.364 277.215 114.838C280.803 125.419 290.402 132.67 302.672 133.479C314.943 134.289 322.473 131.677 329.13 124.99C336.691 132.227 345.358 136.296 357.23 137.079C378.397 138.475 392.502 128.782 393.598 112.16C394.346 100.274 388.395 92.0141 371.148 86.5901ZM238.438 58.6631C244.628 59.0711 247.719 63.0151 247.377 68.1891C246.809 76.8081 238.701 82.1011 227.216 81.3431C223.215 81.0791 220.924 80.6491 219.394 79.9171C220.324 66.5621 227.739 57.9571 238.438 58.6631ZM155.824 71.5951L158.451 31.7739C158.612 29.3319 159.723 27.9604 162.056 27.75C165.591 27.3519 167.9 27.5042 169.822 27.631C185.417 28.6599 194.17 37.5058 193.267 51.1901C192.352 65.6151 180.738 72.8861 155.824 71.5951Z" fill="#DCB100"/>
</g>
<mask id="mask1_149_660" style="mask-type:luminance" maskUnits="userSpaceOnUse" x="217" y="104" width="162" height="77">
<path d="M378.852 115.296L221.697 104.928L217.377 170.41L374.532 180.778L378.852 115.296Z" fill="white"/>
</mask>
<g mask="url(#mask1_149_660)">
<path d="M345.569 146.694C346.174 137.527 351.839 131.206 362.198 131.889C372.557 132.572 376.606 140.39 376.062 148.627L376.006 149.478C375.947 150.369 375.416 150.847 374.512 150.787L354.776 149.485C354.533 153.178 357.257 157.146 363.713 157.572C366.385 157.748 368.42 157.199 371.033 156.477C372.507 156.061 373.64 156.438 373.536 158.01C373.337 161.022 368.608 164.722 360.92 164.214C350.483 163.526 344.911 156.674 345.569 146.694ZM204.773 117.833L204.495 122.037L209.511 122.368C210.402 122.427 210.879 122.971 210.82 123.862L210.529 128.275C210.47 129.166 209.926 129.643 209.035 129.584L204.019 129.253L203.134 142.677C202.919 145.938 204.054 147.473 205.926 147.596C206.722 147.604 207.511 147.464 208.255 147.184C209.614 146.722 210.329 147.453 210.248 148.684C210.043 151.788 206.358 154.017 202.062 153.734C195.449 153.298 193.34 148.976 193.718 143.239L195.253 119.98C195.289 119.43 195.616 119.057 196.143 118.842L202.9 116.513C204.086 116.078 204.854 116.602 204.773 117.833ZM261.484 141.449C262.137 131.548 268.573 125.712 278.12 126.342C287.68 126.973 293.293 133.604 292.64 143.505C291.988 153.393 285.551 159.242 275.991 158.611C266.444 157.981 260.832 151.337 261.484 141.449ZM157.696 134.602C158.349 124.701 164.116 118.821 172.262 119.358C173.959 119.424 175.597 119.994 176.967 120.996C178.337 121.998 179.377 123.386 179.954 124.982L180.162 121.839C180.22 120.948 180.765 120.471 181.655 120.53L188.19 120.961C189.081 121.02 189.558 121.565 189.499 122.455L187.63 150.782C187.572 151.673 187.027 152.15 186.137 152.091L179.602 151.66C178.711 151.601 178.234 151.057 178.293 150.166L178.498 147.063C177.717 148.57 176.504 149.811 175.014 150.624C173.523 151.437 171.824 151.787 170.133 151.627C161.988 151.09 157.043 144.49 157.696 134.602ZM321.34 161.051L314.805 160.62C313.915 160.561 313.438 160.016 313.496 159.126L314.752 140.097C314.962 136.915 314.058 136.263 312.368 136.152C311.421 136.091 310.471 136.231 309.581 136.562C308.692 136.893 307.881 137.408 307.204 138.073L305.851 158.582C305.792 159.473 305.248 159.95 304.357 159.891L297.822 159.46C296.931 159.401 296.454 158.856 296.513 157.966L298.239 131.8C298.276 131.249 298.589 130.889 299.117 130.66L305.886 128.345C307.111 127.913 307.841 128.421 307.759 129.665L307.462 134.157C309.44 130.105 312.566 128.575 316.73 128.85C320.424 129.093 323.02 131.001 324.048 134.962C324.768 133.296 326.005 131.905 327.576 130.994C329.147 130.084 330.969 129.704 332.773 129.908C337.75 130.237 341.605 133.214 341.151 140.089L339.787 160.768C339.728 161.659 339.184 162.136 338.293 162.077L331.745 161.645C330.854 161.586 330.377 161.042 330.436 160.151L331.691 141.136C331.901 137.953 331.01 137.289 329.308 137.177C328.363 137.121 327.416 137.263 326.529 137.594C325.642 137.925 324.834 138.438 324.157 139.1L322.804 159.608C322.775 160.632 322.231 161.11 321.34 161.051ZM230.688 155.07L223.721 154.61C222.83 154.552 222.353 154.007 222.412 153.117L224.824 116.552C224.883 115.661 225.427 115.184 226.318 115.243L233.285 115.702C234.176 115.761 234.653 116.306 234.594 117.196L233.697 130.79L247.409 131.695L248.306 118.101C248.364 117.21 248.909 116.733 249.799 116.792L256.767 117.252C257.657 117.31 258.134 117.855 258.076 118.745L255.663 155.31C255.604 156.201 255.06 156.678 254.169 156.619L247.202 156.16C246.312 156.101 245.835 155.556 245.893 154.666L246.916 139.16L233.205 138.255L232.182 153.761C232.123 154.652 231.578 155.129 230.688 155.07ZM276.411 151.641C280.366 151.902 282.653 148.949 283.053 142.872C283.454 136.796 281.576 133.568 277.621 133.307C273.679 133.047 271.393 136 270.992 142.077C270.591 148.153 272.509 151.384 276.411 151.641ZM172.675 144.797C176.63 145.058 178.917 142.105 179.318 136.028C179.719 129.952 177.84 126.724 173.885 126.463C169.943 126.203 167.657 129.156 167.256 135.233C166.855 141.309 168.733 144.537 172.675 144.797ZM367.426 144.559C367.296 140.749 365.259 138.523 361.776 138.293C358.292 138.063 356.033 140.006 355.364 143.763L367.426 144.559ZM395.836 59.647L387.317 56.994C377.957 54.114 374.639 51.383 374.942 46.786C375.247 42.163 380.071 39.417 387.169 39.885C395.276 40.42 401.076 43.617 410.574 50.978C411.629 51.732 412.572 52.386 413.293 52.434C414.694 52.526 415.699 52.04 416.099 49.975C416.561 47.629 416.858 45.253 416.989 42.865C417.266 38.6612 417.333 35.8508 417.132 34.3117C416.857 31.8997 416.1 30.6134 414.635 29.4908C406.739 23.7742 397.665 20.9527 387.476 20.2805C364.545 18.7676 348.865 28.9529 347.73 46.148C346.882 59.009 355.584 69.264 371.544 74.368L380.484 77.22C391.889 80.787 393.117 83.512 392.847 87.598C392.534 92.352 388.288 95.308 381.582 94.865C370.961 94.165 363.4 89.746 355.315 80.505C354.129 79.151 353.37 78.299 351.837 78.198C351.153 78.129 350.463 78.254 349.847 78.56C349.231 78.867 348.714 79.341 348.356 79.928C342.472 88.366 338.226 91.321 332.621 90.951C326.636 90.556 322.709 86.075 323.216 78.388L325.88 38.0117L339.042 38.8801C340.784 38.995 342.319 37.6494 342.434 35.9076L343.356 21.9339C343.405 21.0915 343.121 20.2637 342.565 19.6291C342.008 18.9945 341.225 18.6039 340.384 18.5415L327.222 17.6731L328.309 1.19803C328.547 -2.41657 326.256 -3.97507 322.554 -2.68047L301.87 4.39933C301.133 4.63603 300.486 5.09322 300.018 5.70922C299.549 6.32512 299.281 7.07022 299.249 7.84362L296.672 46.91C295.058 71.374 277.618 86.902 256.808 85.529C245.898 84.809 236.275 79.952 233.322 69.09C235.772 70.238 239.948 70.934 245.933 71.329C269.965 72.914 287.567 60.896 288.822 41.88C289.937 24.9731 276.7 12.8931 255.89 11.5202C248.163 11.0104 240.64 12.0004 234.043 14.301C230.4 -8.62877 209.415 -24.9028 179.097 -26.903C165.254 -27.8163 152.57 -26.9433 140.749 -24.2243C137.464 -23.4677 135.375 -21.5142 135.163 -18.2925L131.523 36.8692C125.039 33.8283 119.523 29.0532 115.584 23.072C114.686 21.7369 114.019 20.8774 112.5 20.7772C110.247 20.6286 108.773 22.2412 108.628 24.4414C108 33.9624 118.342 47.259 130.378 54.235L127.87 92.24C127.755 93.982 129.1 95.531 130.842 95.646L155.764 97.29C156.609 97.339 157.438 97.053 158.074 96.494C158.709 95.935 159.098 95.148 159.157 94.305L161.056 65.519C162.881 65.771 164.651 66.059 166.642 66.19C183.117 67.277 195.69 65.502 205.127 60.232C205.302 85.287 222.803 103.923 251.248 105.799C265.903 106.766 283.571 102.736 294.075 90.25C297.962 101.713 308.361 109.567 321.654 110.444C334.947 111.321 343.104 108.492 350.317 101.247C358.507 109.088 367.897 113.495 380.758 114.344C403.689 115.857 418.969 105.356 420.157 87.348C420.967 74.472 414.52 65.523 395.836 59.647ZM252.067 29.3932C258.772 29.8356 262.121 34.1077 261.751 39.713C261.135 49.051 252.351 54.785 239.91 53.964C235.575 53.678 233.094 53.212 231.436 52.418C232.443 37.9503 240.477 28.6285 252.067 29.3932ZM162.568 43.403L165.414 0.263428C165.589 -2.38207 166.792 -3.86787 169.319 -4.09577C173.149 -4.52707 175.65 -4.36207 177.732 -4.22467C194.627 -3.11007 204.109 6.47292 203.131 21.2979C202.14 36.9244 189.558 44.802 162.568 43.403Z" fill="white"/>
</g>
<path d="M136.259 144.39L138.457 111.073L161.883 112.618L161.402 119.906L147.021 118.958L146.644 124.684L159.593 125.538L159.112 132.826L146.163 131.972L145.304 144.986L136.259 144.39ZM173.316 147.292C170.605 147.113 168.319 146.423 166.459 145.222C164.601 144.01 163.22 142.405 162.317 140.406C161.414 138.397 161.048 136.113 161.217 133.553C161.386 130.994 162.049 128.783 163.206 126.92C164.365 125.047 165.945 123.637 167.946 122.691C169.948 121.734 172.305 121.345 175.016 121.523C177.727 121.702 180.012 122.398 181.871 123.61C183.731 124.811 185.112 126.416 186.014 128.425C186.917 130.423 187.284 132.702 187.115 135.262C186.946 137.821 186.283 140.038 185.124 141.911C183.967 143.774 182.387 145.183 180.385 146.141C178.384 147.087 176.027 147.471 173.316 147.292ZM173.819 140.659C174.578 140.709 175.251 140.497 175.838 140.024C176.424 139.551 176.901 138.852 177.267 137.929C177.633 137.005 177.859 135.893 177.944 134.592C178.031 133.279 177.953 132.147 177.711 131.194C177.47 130.23 177.089 129.476 176.57 128.929C176.05 128.383 175.411 128.085 174.652 128.035C173.849 127.982 173.144 128.191 172.535 128.663C171.927 129.135 171.44 129.833 171.074 130.756C170.709 131.669 170.483 132.781 170.396 134.094C170.31 135.395 170.388 136.527 170.629 137.491C170.871 138.455 171.262 139.21 171.803 139.758C172.344 140.306 173.016 140.606 173.819 140.659ZM189.939 147.931L191.588 122.943L200.307 123.519L199.994 128.269L200.254 128.286C200.826 126.559 201.632 125.322 202.672 124.573C203.724 123.826 204.916 123.496 206.25 123.584C206.641 123.61 207.024 123.668 207.399 123.758C207.786 123.838 208.155 123.944 208.505 124.076L208 131.738C207.565 131.557 207.025 131.407 206.379 131.288C205.734 131.169 205.178 131.094 204.711 131.064C203.833 131.006 203.028 131.154 202.296 131.509C201.577 131.854 200.992 132.371 200.544 133.06C200.096 133.738 199.841 134.555 199.778 135.509L198.919 148.524L189.939 147.931Z" fill="white"/>
<path d="M104.805 136.194C106.174 135.389 108.365 136.348 109.707 138.36C111.044 140.36 111.04 142.635 109.676 143.452C108.325 144.264 106.121 143.31 104.767 141.303C103.418 139.308 103.447 137.023 104.805 136.194ZM113.617 132.586C115.18 132.22 116.79 133.834 117.252 136.192C117.682 138.578 116.792 140.798 115.247 141.172C113.69 141.55 112.091 139.931 111.654 137.563C111.2 135.187 112.09 132.967 113.617 132.586ZM100.533 144.562C101.69 143.383 104.05 143.698 105.83 145.2C107.564 146.763 108.081 148.941 106.936 150.115C105.79 151.289 103.448 150.981 101.682 149.445C99.9165 147.908 99.419 145.709 100.533 144.562ZM122.717 135.48C124.315 135.517 125.502 137.434 125.321 139.767C125.14 142.101 123.686 143.962 122.046 143.929C120.406 143.895 119.248 141.98 119.387 139.649C119.603 137.33 121.065 135.451 122.717 135.48ZM126.098 149.609C126.621 150.747 126.259 152.392 125.396 153.307C123.603 155.22 120.133 154.195 117.68 155.199C115.228 156.203 113.483 159.464 110.865 159.256C109.385 159.156 107.879 157.902 107.494 156.505C106.964 154.578 108.767 152.689 109.523 150.811C110.549 148.362 110.445 144.591 112.922 143.577C115.387 142.568 118.01 145.25 120.406 146.356C122.389 147.299 125.189 147.635 126.098 149.609Z" fill="white"/>
<path d="M107.86 82.648C108.65 85.008 107.377 87.562 105.017 88.351L45.1906 108.371C42.8305 109.161 40.2771 107.888 39.4873 105.528L26.6173 67.068L13.7974 71.358L44.5035 16.4706C45.6375 14.4435 48.1271 13.6104 50.2528 14.5467L107.81 39.898L94.99 44.188L107.86 82.648ZM97.8834 81.235L83.8086 39.175L50.3688 24.4458L32.5291 56.335L46.6039 98.395L97.8834 81.235ZM69.3837 81.268L50.2276 71.718C45.2163 69.22 43.179 63.132 45.6775 58.121C48.1758 53.109 54.2634 51.072 59.2749 53.571L60.2831 54.073L60.786 53.065C63.2844 48.053 69.3721 46.016 74.3836 48.515C79.3945 51.013 81.4318 57.101 78.9337 62.112L69.3837 81.268Z" fill="white"/>
<path d="M81.4507 99.844C82.9809 99.017 85.3431 100.153 86.7335 102.409C88.1189 104.651 88.0253 107.143 86.5001 107.984C84.9887 108.821 82.6128 107.689 81.2087 105.438C79.8097 103.201 79.9306 100.7 81.4507 99.844ZM91.2421 96.24C92.9675 95.9 94.6679 97.731 95.081 100.331C95.458 102.96 94.3966 105.357 92.6899 105.705C90.9696 106.059 89.2829 104.223 88.8972 101.613C88.4927 98.993 89.5541 96.597 91.2421 96.24ZM76.4435 108.841C77.7576 107.595 80.3289 108.033 82.2196 109.747C84.0569 111.527 84.5378 113.932 83.2374 115.172C81.937 116.413 79.3844 115.984 77.511 114.233C75.6377 112.481 75.1791 110.053 76.4435 108.841ZM101.093 99.766C102.841 99.869 104.067 102.015 103.777 104.563C103.486 107.111 101.821 109.093 100.026 108.991C98.232 108.89 97.039 106.748 97.2832 104.201C97.611 101.67 99.2849 99.67 101.093 99.766ZM104.241 115.37C104.77 116.637 104.308 118.425 103.327 119.392C101.289 121.418 97.5289 120.158 94.8038 121.162C92.0786 122.165 90.0404 125.668 87.1815 125.336C85.5651 125.17 83.9648 123.737 83.5983 122.193C83.0936 120.061 85.1415 118.063 86.0435 116.036C87.2636 113.395 87.2969 109.262 90.0495 108.248C92.7883 107.24 95.5558 110.28 98.1355 111.585C100.271 112.696 103.323 113.173 104.241 115.37Z" fill="white"/>
</g>
<defs>
<clipPath id="clip0_149_660">
<rect width="404" height="170" fill="white"/>
</clipPath>
</defs>
</svg>
