<svg width="208" height="125" viewBox="0 0 208 125" fill="none" xmlns="http://www.w3.org/2000/svg">
<path d="M33.9389 103.172C34.5494 102.841 35.4917 103.295 36.0463 104.195C36.599 105.089 36.5617 106.083 35.9533 106.419C35.3503 106.752 34.4025 106.301 33.8424 105.403C33.2843 104.511 33.3325 103.513 33.9389 103.172ZM37.8449 101.734C38.5332 101.598 39.2116 102.328 39.3763 103.366C39.5268 104.415 39.1033 105.371 38.4225 105.51C37.7362 105.651 37.0634 104.918 36.9095 103.877C36.7482 102.832 37.1716 101.876 37.8449 101.734ZM31.9414 106.761C32.4656 106.264 33.4914 106.438 34.2456 107.122C34.9786 107.832 35.1704 108.791 34.6517 109.286C34.1329 109.781 33.1146 109.61 32.3673 108.911C31.62 108.213 31.437 107.244 31.9414 106.761ZM41.7747 103.14C42.4722 103.181 42.961 104.037 42.8452 105.054C42.7294 106.07 42.0651 106.861 41.3492 106.821C40.6334 106.78 40.1575 105.926 40.2549 104.91C40.3856 103.9 41.0534 103.102 41.7747 103.14ZM43.0305 109.365C43.2414 109.871 43.0573 110.584 42.6659 110.97C41.8529 111.778 40.3529 111.275 39.2658 111.676C38.1786 112.076 37.3656 113.473 36.2251 113.341C35.5802 113.274 34.9418 112.703 34.7956 112.087C34.5943 111.237 35.4113 110.44 35.7711 109.631C36.2578 108.577 36.2711 106.928 37.3692 106.524C38.4618 106.122 39.5658 107.334 40.5949 107.855C41.4466 108.298 42.6644 108.489 43.0305 109.365Z" fill="#2B2B2B"/>
<g clip-path="url(#clip0_4_5181)">
<path d="M167.246 117.035C167.533 112.677 170.226 109.671 175.151 109.996C180.075 110.321 182 114.037 181.742 117.953L181.715 118.358C181.687 118.781 181.434 119.009 181.005 118.98L171.623 118.361C171.507 120.117 172.802 122.003 175.871 122.206C177.141 122.29 178.109 122.028 179.351 121.685C180.052 121.487 180.59 121.667 180.541 122.414C180.446 123.846 178.198 125.605 174.543 125.363C169.581 125.036 166.933 121.779 167.246 117.035ZM100.313 103.314L100.181 105.313L102.566 105.47C102.989 105.498 103.216 105.757 103.188 106.18L103.05 108.278C103.022 108.702 102.763 108.929 102.34 108.901L99.9551 108.743L99.5341 115.125C99.4318 116.675 99.9714 117.405 100.862 117.463C101.24 117.467 101.615 117.401 101.969 117.268C102.615 117.048 102.955 117.395 102.916 117.98C102.819 119.456 101.067 120.516 99.0247 120.381C95.8807 120.174 94.8782 118.119 95.0581 115.392L95.7876 104.335C95.8048 104.074 95.9604 103.896 96.211 103.794L99.423 102.687C99.9869 102.48 100.352 102.729 100.313 103.314ZM127.273 114.541C127.583 109.835 130.643 107.06 135.181 107.359C139.726 107.659 142.394 110.812 142.084 115.518C141.774 120.219 138.714 123 134.169 122.7C129.631 122.4 126.963 119.242 127.273 114.541ZM77.9335 111.286C78.244 106.579 80.9859 103.784 84.8583 104.039C85.6646 104.071 86.4433 104.342 87.0947 104.818C87.7461 105.294 88.2406 105.954 88.5149 106.713L88.6135 105.219C88.6414 104.795 88.9003 104.569 89.3236 104.597L92.4303 104.802C92.8536 104.829 93.0804 105.088 93.0525 105.512L92.1641 118.978C92.1361 119.401 91.8773 119.628 91.4539 119.6L88.3473 119.395C87.9239 119.367 87.6971 119.108 87.7251 118.685L87.8224 117.21C87.4514 117.926 86.8746 118.516 86.1661 118.903C85.4577 119.289 84.6498 119.455 83.8462 119.38C79.9738 119.124 77.6234 115.986 77.9335 111.286ZM155.728 123.859L152.621 123.654C152.198 123.627 151.971 123.368 151.999 122.944L152.596 113.898C152.695 112.385 152.266 112.076 151.463 112.023C151.012 111.994 150.561 112.061 150.138 112.218C149.715 112.375 149.33 112.62 149.007 112.936L148.364 122.686C148.336 123.109 148.077 123.336 147.654 123.308L144.547 123.103C144.124 123.075 143.897 122.816 143.925 122.393L144.746 109.954C144.763 109.692 144.912 109.521 145.163 109.412L148.381 108.312C148.963 108.106 149.31 108.348 149.271 108.939L149.13 111.075C150.07 109.148 151.556 108.421 153.536 108.552C155.292 108.667 156.526 109.574 157.015 111.457C157.357 110.665 157.945 110.004 158.692 109.571C159.439 109.139 160.305 108.957 161.163 109.055C163.529 109.211 165.361 110.626 165.145 113.895L164.497 123.725C164.469 124.149 164.21 124.375 163.787 124.347L160.674 124.142C160.25 124.114 160.024 123.855 160.052 123.432L160.648 114.392C160.748 112.879 160.325 112.564 159.515 112.51C159.066 112.484 158.616 112.551 158.194 112.709C157.773 112.866 157.389 113.11 157.066 113.424L156.423 123.174C156.41 123.661 156.151 123.887 155.728 123.859ZM112.633 121.016L109.321 120.798C108.897 120.77 108.671 120.511 108.698 120.088L109.845 102.705C109.873 102.282 110.132 102.055 110.555 102.083L113.868 102.302C114.291 102.329 114.518 102.588 114.49 103.012L114.063 109.474L120.582 109.904L121.008 103.442C121.036 103.018 121.295 102.792 121.718 102.819L125.03 103.038C125.454 103.066 125.68 103.325 125.653 103.748L124.506 121.131C124.478 121.554 124.219 121.781 123.796 121.753L120.484 121.534C120.06 121.506 119.833 121.247 119.861 120.824L120.348 113.453L113.829 113.023L113.343 120.394C113.315 120.817 113.056 121.044 112.633 121.016ZM134.369 119.386C136.249 119.51 137.336 118.106 137.527 115.218C137.717 112.329 136.824 110.794 134.944 110.67C133.07 110.547 131.983 111.951 131.793 114.839C131.602 117.728 132.514 119.264 134.369 119.386ZM85.0546 116.133C86.9348 116.257 88.0217 114.853 88.2123 111.964C88.4028 109.075 87.5099 107.541 85.6297 107.417C83.7557 107.293 82.6689 108.697 82.4783 111.586C82.2877 114.475 83.1807 116.009 85.0546 116.133ZM177.636 116.019C177.574 114.208 176.606 113.15 174.95 113.041C173.294 112.932 172.22 113.855 171.902 115.641L177.636 116.019ZM191.142 75.6538L187.092 74.3924C182.642 73.0234 181.065 71.725 181.209 69.5398C181.354 67.3421 183.647 66.0364 187.022 66.2591C190.876 66.5133 193.633 68.0333 198.148 71.5327C198.65 71.8909 199.098 72.2019 199.44 72.2245C200.107 72.2685 200.584 72.0374 200.774 71.0557C200.994 69.9403 201.135 68.8109 201.197 67.6758C201.329 65.6773 201.361 64.3413 201.266 63.6096C201.135 62.463 200.775 61.8515 200.079 61.3178C196.325 58.6003 192.011 57.259 187.168 56.9394C176.266 56.2202 168.812 61.0621 168.273 69.2366C167.87 75.3503 172.006 80.2253 179.594 82.6518L183.844 84.0077C189.266 85.7035 189.849 86.9988 189.721 88.9413C189.572 91.2012 187.553 92.6063 184.366 92.396C179.317 92.0628 175.722 89.9623 171.879 85.5694C171.315 84.9256 170.954 84.5204 170.225 84.4723C169.9 84.4395 169.572 84.4993 169.279 84.6448C168.986 84.7903 168.741 85.0157 168.57 85.2948C165.773 89.306 163.755 90.711 161.09 90.5352C158.245 90.3475 156.378 88.2172 156.62 84.5626L157.886 65.3686L164.143 65.7814C164.971 65.836 165.701 65.1963 165.755 64.3683L166.194 57.7254C166.217 57.3249 166.082 56.9314 165.817 56.6298C165.553 56.3281 165.181 56.1424 164.781 56.1127L158.524 55.6999L159.04 47.8679C159.154 46.1496 158.065 45.4086 156.305 46.0241L146.472 49.3897C146.121 49.5022 145.814 49.7196 145.591 50.0124C145.368 50.3052 145.241 50.6594 145.226 51.0271L144 69.5986C143.233 81.2283 134.943 88.61 125.05 87.9574C119.864 87.6152 115.289 85.3062 113.885 80.1425C115.05 80.6883 117.035 81.0194 119.88 81.2071C131.304 81.9608 139.673 76.2475 140.269 67.2077C140.799 59.1702 134.506 53.4275 124.613 52.7749C120.94 52.5325 117.364 53.0032 114.228 54.0968C112.496 43.1964 102.52 35.46 88.1074 34.5091C81.5268 34.0749 75.4966 34.49 69.8776 35.7825C68.3156 36.1422 67.3227 37.0709 67.2216 38.6024L65.4916 64.8254C62.4092 63.3798 59.7868 61.1098 57.9144 58.2665C57.4873 57.6317 57.1703 57.2232 56.4481 57.1755C55.3773 57.1049 54.6764 57.8715 54.6074 58.9174C54.3088 63.4436 59.2255 69.7645 64.9469 73.0808L63.7549 91.148C63.7003 91.976 64.3396 92.7123 65.1676 92.7669L77.0153 93.5486C77.4168 93.5718 77.8113 93.4358 78.1132 93.1701C78.4152 92.9045 78.6002 92.5305 78.6283 92.1293L79.5312 78.445C80.3987 78.5648 81.24 78.7016 82.1863 78.764C90.0184 79.2807 95.9955 78.437 100.482 75.9317C100.565 87.8427 108.885 96.7016 122.407 97.5938C129.374 98.0534 137.773 96.1376 142.766 90.2017C144.614 95.651 149.558 99.385 155.877 99.8019C162.196 100.219 166.074 98.8739 169.503 95.4297C173.396 99.1569 177.86 101.252 183.974 101.656C194.875 102.375 202.139 97.3828 202.704 88.8223C203.089 82.7012 200.024 78.4471 191.142 75.6538ZM122.796 61.2714C125.984 61.4817 127.576 63.5126 127.4 66.1773C127.107 70.6163 122.931 73.3422 117.017 72.952C114.956 72.816 113.777 72.5944 112.989 72.2172C113.467 65.3394 117.286 60.9079 122.796 61.2714ZM80.2498 67.9313L81.6028 47.4236C81.6858 46.166 82.2576 45.4596 83.4591 45.3513C85.2797 45.1463 86.4688 45.2247 87.4587 45.29C95.49 45.8199 99.9979 50.3755 99.5329 57.4231C99.0616 64.8517 93.0806 68.5965 80.2498 67.9313Z" fill="#DCB100"/>
</g>
<g clip-path="url(#clip1_4_5181)">
<path d="M177.968 106.608C178.279 101.886 181.197 98.631 186.532 98.983C191.867 99.335 193.952 103.361 193.672 107.603L193.643 108.042C193.613 108.5 193.339 108.746 192.874 108.716L182.71 108.045C182.584 109.947 183.987 111.99 187.312 112.21C188.688 112.301 189.736 112.017 191.082 111.646C191.841 111.432 192.424 111.626 192.371 112.435C192.269 113.986 189.833 115.892 185.874 115.631C180.498 115.276 177.629 111.747 177.968 106.608ZM105.458 91.7442L105.315 93.9092L107.898 94.0796C108.357 94.1099 108.602 94.3903 108.572 94.8489L108.422 97.1218C108.392 97.5805 108.112 97.8262 107.653 97.7959L105.07 97.6255L104.614 104.539C104.503 106.218 105.087 107.009 106.052 107.072C106.461 107.076 106.868 107.004 107.251 106.86C107.951 106.622 108.319 106.998 108.278 107.632C108.172 109.231 106.274 110.379 104.062 110.233C100.656 110.008 99.5698 107.783 99.7647 104.828L100.555 92.85C100.574 92.5668 100.742 92.3747 101.014 92.2639L104.493 91.0641C105.104 90.8403 105.5 91.1102 105.458 91.7442ZM134.664 103.907C135 98.8076 138.315 95.8019 143.232 96.1262C148.155 96.4511 151.046 99.8662 150.709 104.965C150.373 110.057 147.059 113.07 142.135 112.745C137.218 112.421 134.328 108.999 134.664 103.907ZM81.2131 100.38C81.5495 95.2812 84.5198 92.2527 88.715 92.5295C89.5885 92.5634 90.432 92.8572 91.1377 93.3731C91.8434 93.8891 92.3791 94.6038 92.6763 95.4259L92.7831 93.8072C92.8133 93.3486 93.0937 93.1029 93.5524 93.1332L96.9179 93.3552C97.3766 93.3855 97.6222 93.6659 97.592 94.1245L96.6295 108.713C96.5992 109.172 96.3189 109.417 95.8602 109.387L92.4947 109.165C92.036 109.135 91.7904 108.854 91.8206 108.396L91.9261 106.797C91.5241 107.574 90.8993 108.213 90.1318 108.631C89.3643 109.05 88.4891 109.23 87.6185 109.148C83.4234 108.871 80.8771 105.472 81.2131 100.38ZM165.49 114.001L162.125 113.779C161.666 113.749 161.42 113.469 161.45 113.01L162.097 103.21C162.205 101.571 161.74 101.236 160.87 101.178C160.382 101.147 159.893 101.219 159.434 101.39C158.976 101.56 158.559 101.825 158.21 102.168L157.513 112.73C157.483 113.188 157.202 113.434 156.744 113.404L153.378 113.182C152.92 113.152 152.674 112.871 152.704 112.413L153.593 98.9369C153.612 98.6536 153.773 98.4678 154.045 98.3503L157.531 97.1577C158.162 96.9352 158.538 97.197 158.495 97.8378L158.343 100.151C159.361 98.0642 160.971 97.2763 163.116 97.4178C165.018 97.5433 166.355 98.5257 166.885 100.566C167.255 99.7073 167.892 98.991 168.702 98.5223C169.511 98.0536 170.449 97.8575 171.378 97.9629C173.941 98.132 175.926 99.6652 175.693 103.206L174.99 113.856C174.96 114.314 174.679 114.56 174.221 114.53L170.848 114.307C170.39 114.277 170.144 113.997 170.174 113.538L170.82 103.745C170.929 102.106 170.47 101.764 169.593 101.706C169.107 101.678 168.619 101.751 168.162 101.921C167.706 102.092 167.289 102.356 166.94 102.696L166.244 113.258C166.229 113.786 165.949 114.032 165.49 114.001ZM118.804 110.921L115.216 110.684C114.757 110.654 114.512 110.374 114.542 109.915L115.784 91.0842C115.814 90.6256 116.095 90.3799 116.553 90.4102L120.142 90.6469C120.6 90.6772 120.846 90.9576 120.816 91.4162L120.354 98.4171L127.415 98.883L127.877 91.8821C127.908 91.4234 128.188 91.1778 128.647 91.208L132.235 91.4447C132.693 91.475 132.939 91.7554 132.909 92.214L131.666 111.045C131.636 111.504 131.356 111.749 130.897 111.719L127.309 111.482C126.85 111.452 126.605 111.172 126.635 110.713L127.162 102.727L120.1 102.261L119.573 110.247C119.543 110.706 119.263 110.951 118.804 110.921ZM142.352 109.155C144.388 109.29 145.566 107.769 145.772 104.639C145.979 101.51 145.011 99.8474 142.975 99.713C140.944 99.5791 139.767 101.1 139.561 104.23C139.354 107.359 140.342 109.023 142.352 109.155ZM88.9277 105.631C90.9645 105.765 92.1419 104.244 92.3484 101.115C92.5549 97.9853 91.5875 96.3228 89.5506 96.1884C87.5205 96.0545 86.3431 97.5754 86.1366 100.705C85.9302 103.834 86.8975 105.497 88.9277 105.631ZM189.224 105.508C189.157 103.546 188.108 102.399 186.314 102.281C184.52 102.163 183.357 103.163 183.012 105.098L189.224 105.508ZM203.855 61.7785L199.468 60.412C194.648 58.9289 192.939 57.5223 193.095 55.155C193.252 52.7741 195.736 51.3597 199.392 51.6009C203.567 51.8763 206.554 53.523 211.445 57.314C211.989 57.7021 212.475 58.039 212.846 58.0634C213.567 58.1111 214.085 57.8607 214.291 56.7972C214.529 55.5889 214.682 54.3654 214.749 53.1357C214.892 50.9706 214.926 49.5233 214.823 48.7307C214.681 47.4885 214.291 46.826 213.537 46.2479C209.47 43.3039 204.797 41.8508 199.55 41.5046C187.74 40.7254 179.665 45.9709 179.081 54.8265C178.644 61.4497 183.125 66.731 191.345 69.3596L195.949 70.8285C201.823 72.6657 202.455 74.069 202.316 76.1733C202.155 78.6216 199.968 80.1437 196.515 79.9158C191.045 79.555 187.151 77.2794 182.987 72.5204C182.376 71.823 181.985 71.384 181.196 71.3319C180.844 71.2963 180.488 71.3611 180.171 71.5188C179.854 71.6764 179.588 71.9205 179.403 72.223C176.373 76.5684 174.186 78.0905 171.3 77.9C168.217 77.6967 166.195 75.3888 166.456 71.4297L167.828 50.6362L174.606 51.0834C175.503 51.1425 176.294 50.4496 176.353 49.5526L176.828 42.3561C176.853 41.9222 176.707 41.496 176.421 41.1691C176.134 40.8423 175.731 40.6411 175.297 40.609L168.519 40.1618L169.079 31.6771C169.202 29.8156 168.022 29.0129 166.115 29.6797L155.463 33.3258C155.083 33.4477 154.75 33.6831 154.509 34.0003C154.268 34.3176 154.129 34.7013 154.113 35.0996L152.786 55.2187C151.954 67.8176 142.973 75.8144 132.256 75.1074C126.638 74.7367 121.681 72.2353 120.161 66.6413C121.422 67.2325 123.573 67.5912 126.655 67.7946C139.032 68.6111 148.097 62.4217 148.743 52.6285C149.318 43.9213 142.5 37.7001 131.783 36.993C127.804 36.7305 123.929 37.2403 120.532 38.4252C118.656 26.6163 107.849 18.2352 92.2348 17.2051C85.1058 16.7347 78.5731 17.1844 72.4858 18.5846C70.7937 18.9742 69.718 19.9803 69.6086 21.6395L67.7343 50.0477C64.3951 48.4817 61.5542 46.0225 59.5257 42.9422C59.063 42.2546 58.7196 41.812 57.9373 41.7604C56.7772 41.6838 56.0179 42.5144 55.9431 43.6474C55.6197 48.5508 60.9461 55.3984 67.1443 58.9911L65.853 78.5639C65.7938 79.4609 66.4863 80.2585 67.3833 80.3177L80.2183 81.1645C80.6533 81.1896 81.0806 81.0423 81.4078 80.7545C81.7349 80.4667 81.9354 80.0616 81.9658 79.6269L82.9439 64.8023C83.8837 64.9321 84.7951 65.0803 85.8203 65.1479C94.305 65.7077 100.78 64.7936 105.64 62.0795C105.73 74.9831 114.743 84.5803 129.393 85.5468C136.94 86.0447 146.039 83.9693 151.449 77.5387C153.45 83.4422 158.806 87.4873 165.652 87.939C172.497 88.3906 176.698 86.9337 180.413 83.2024C184.631 87.2402 189.467 89.5102 196.09 89.9471C207.9 90.7263 215.769 85.3183 216.381 76.0444C216.798 69.4132 213.478 64.8046 203.855 61.7785ZM129.814 46.1976C133.267 46.4254 134.992 48.6256 134.801 51.5123C134.484 56.3212 129.961 59.2742 123.553 58.8515C121.321 58.7042 120.043 58.4641 119.189 58.0556C119.708 50.6046 123.845 45.8038 129.814 46.1976ZM83.7224 53.4125L85.1882 31.1958C85.278 29.8334 85.8975 29.0681 87.1991 28.9508C89.1714 28.7287 90.4597 28.8137 91.532 28.8844C100.233 29.4584 105.116 34.3937 104.612 42.0286C104.102 50.0762 97.6224 54.1331 83.7224 53.4125Z" fill="#004DD3"/>
</g>
<path d="M70.1853 105.246L71.3173 88.0879L83.3816 88.8839L83.134 92.6372L75.7278 92.1486L75.5333 95.0976L82.2021 95.5376L81.9545 99.291L75.2856 98.851L74.8434 105.553L70.1853 105.246ZM89.2695 106.741C87.8732 106.649 86.6962 106.293 85.7385 105.675C84.7811 105.051 84.07 104.224 83.6049 103.195C83.1403 102.16 82.9514 100.984 83.0384 99.6654C83.1254 98.3473 83.467 97.2086 84.0632 96.2494C84.6597 95.2846 85.4733 94.5586 86.504 94.0712C87.535 93.5783 88.7487 93.3779 90.1451 93.47C91.5414 93.5621 92.7182 93.9202 93.6756 94.5444C94.6333 95.1629 95.3445 95.9896 95.8091 97.0244C96.2741 98.0535 96.4631 99.2272 96.3762 100.545C96.2892 101.863 95.9475 103.005 95.3509 103.97C94.7547 104.929 93.9411 105.655 92.91 106.148C91.8794 106.635 90.6659 106.833 89.2695 106.741ZM89.5286 103.325C89.9195 103.351 90.2661 103.242 90.5683 102.998C90.8704 102.754 91.1158 102.394 91.3042 101.919C91.4927 101.443 91.609 100.87 91.6532 100.2C91.6978 99.5243 91.6577 98.941 91.533 98.4504C91.4087 97.9541 91.2128 97.5654 90.9452 97.2841C90.6777 97.0028 90.3485 96.8492 89.9575 96.8234C89.5442 96.7961 89.1808 96.904 88.8675 97.147C88.5542 97.39 88.3033 97.7493 88.1148 98.2249C87.9267 98.6949 87.8104 99.2678 87.7658 99.9436C87.7216 100.614 87.7617 101.197 87.886 101.693C88.0103 102.19 88.2118 102.579 88.4905 102.861C88.7692 103.143 89.1152 103.297 89.5286 103.325ZM97.8306 107.07L98.6796 94.2014L103.17 94.4976L103.009 96.944L103.143 96.9528C103.437 96.0635 103.852 95.4261 104.388 95.0408C104.93 94.6558 105.544 94.4859 106.231 94.5313C106.432 94.5445 106.629 94.5744 106.822 94.6208C107.022 94.662 107.211 94.7166 107.392 94.7846L107.132 98.7306C106.908 98.6373 106.63 98.5601 106.297 98.4989C105.965 98.4376 105.678 98.3991 105.438 98.3833C104.986 98.3534 104.571 98.4299 104.195 98.6126C103.824 98.79 103.523 99.0563 103.292 99.4113C103.061 99.7607 102.93 100.181 102.897 100.673L102.455 107.375L97.8306 107.07Z" fill="#004DD3"/>
<path d="M53.9749 101.2C54.6797 100.785 55.8083 101.279 56.4993 102.315C57.1878 103.345 57.1858 104.517 56.4836 104.938C55.7877 105.356 54.6528 104.865 53.9554 103.831C53.2606 102.804 53.2753 101.627 53.9749 101.2ZM58.5131 99.3418C59.3178 99.1532 60.1473 99.9845 60.3851 101.199C60.6064 102.427 60.1482 103.571 59.3525 103.763C58.5504 103.958 57.7273 103.124 57.5022 101.905C57.2682 100.682 57.7263 99.5379 58.5131 99.3418ZM51.7745 105.51C52.3707 104.902 53.5858 105.065 54.5027 105.838C55.3956 106.643 55.662 107.764 55.0721 108.369C54.4822 108.974 53.276 108.815 52.3666 108.024C51.4572 107.233 51.201 106.1 51.7745 105.51ZM63.1994 100.832C64.0223 100.851 64.634 101.838 64.5405 103.04C64.4471 104.242 63.6983 105.201 62.8537 105.183C62.0092 105.166 61.4128 104.18 61.4846 102.98C61.596 101.785 62.3485 100.818 63.1994 100.832ZM64.9406 108.109C65.2103 108.695 65.0235 109.542 64.579 110.013C63.6559 110.999 61.8686 110.47 60.6055 110.988C59.3424 111.505 58.444 113.184 57.0957 113.077C56.3336 113.026 55.5579 112.38 55.3597 111.66C55.0868 110.668 56.0151 109.695 56.4046 108.728C56.9332 107.466 56.8793 105.524 58.1551 105.002C59.4245 104.482 60.7755 105.864 62.0092 106.433C63.0308 106.919 64.4726 107.092 64.9406 108.109Z" fill="#2B2B2B"/>
<path d="M55.5479 73.6239C55.9547 74.8393 55.2991 76.1543 54.0836 76.5611L23.2732 86.8714C22.0577 87.2781 20.7427 86.6225 20.336 85.4071L13.7079 65.6003L7.10567 67.8097L22.9193 39.5425C23.5033 38.4985 24.7855 38.0695 25.8802 38.5517L55.5221 51.6078L48.9199 53.8171L55.5479 73.6239ZM50.41 72.896L43.1614 51.2351L25.9399 43.6497L16.7525 60.0725L24.001 81.7334L50.41 72.896ZM35.7326 72.9132L25.8672 67.9949C23.2864 66.7084 22.2372 63.573 23.5239 60.9924C24.8105 58.4114 27.9457 57.3623 30.5266 58.649L31.0458 58.9077L31.3048 58.3886C32.5914 55.8076 35.7266 54.7585 38.3076 56.0452C40.8882 57.3317 41.9374 60.4671 40.6509 63.0478L35.7326 72.9132Z" fill="#004DD3"/>
<path d="M41.9469 82.48C42.735 82.0537 43.9515 82.6389 44.6675 83.8008C45.381 84.9556 45.3328 86.2387 44.5474 86.672C43.7689 87.1028 42.5454 86.5201 41.8223 85.3609C41.1018 84.2086 41.164 82.9204 41.9469 82.48ZM46.9894 80.6235C47.878 80.4485 48.7537 81.3915 48.9665 82.7306C49.1606 84.0847 48.614 85.319 47.7351 85.4984C46.8491 85.6805 45.9805 84.7349 45.7818 83.3906C45.5735 82.0417 46.1202 80.8074 46.9894 80.6235ZM39.3682 87.1132C40.0449 86.4717 41.3692 86.6969 42.3429 87.5797C43.2891 88.4967 43.5367 89.7349 42.867 90.3739C42.1973 91.0129 40.8828 90.7921 39.918 89.89C38.9532 88.9878 38.717 87.7374 39.3682 87.1132ZM52.0627 82.4396C52.9631 82.4925 53.5942 83.5976 53.4447 84.91C53.2952 86.2223 52.4376 87.2428 51.5134 87.1906C50.5893 87.1385 49.9749 86.0353 50.1006 84.7236C50.2694 83.4202 51.1315 82.39 52.0627 82.4396ZM53.6839 90.4758C53.9562 91.1284 53.7184 92.0488 53.2132 92.5471C52.1637 93.5902 50.2272 92.9417 48.8237 93.4584C47.4203 93.9751 46.3706 95.7791 44.8983 95.6084C44.0658 95.5224 43.2416 94.7848 43.0529 93.9893C42.793 92.8918 43.8477 91.8628 44.3122 90.8189C44.9405 89.4584 44.9577 87.3298 46.3753 86.8079C47.7858 86.2886 49.211 87.8541 50.5396 88.5262C51.6392 89.0984 53.2113 89.3445 53.6839 90.4758Z" fill="#2B2B2B"/>
<defs>
<clipPath id="clip0_4_5181">
<rect width="149.744" height="93.5898" fill="white" transform="translate(58.488 0.0961914) rotate(3.77461)"/>
</clipPath>
<clipPath id="clip1_4_5181">
<rect width="81.1111" height="33.7963" fill="white" transform="translate(114.174 85.0981) rotate(3.77461)"/>
</clipPath>
</defs>
</svg>
